<?xml version="1.0" encoding="UTF-8" standalone="no"?>
<svg
   height="1.3103584in"
   width="1.6570367in"
   version="1.1"
   id="svg3"
   sodipodi:docname="fritzing.svg"
   xml:space="preserve"
   inkscape:version="1.4 (86a8ad7, 2024-10-11)"
   viewBox="0 0 1657.0367 1310.3584"
   xmlns:inkscape="http://www.inkscape.org/namespaces/inkscape"
   xmlns:sodipodi="http://sodipodi.sourceforge.net/DTD/sodipodi-0.dtd"
   xmlns:xlink="http://www.w3.org/1999/xlink"
   xmlns="http://www.w3.org/2000/svg"
   xmlns:svg="http://www.w3.org/2000/svg"><defs
     id="defs3"><linearGradient
       id="linearGradient4684"><stop
         style="stop-color:#000000;stop-opacity:1"
         offset="0"
         id="stop4686" /><stop
         style="stop-color:#343434;stop-opacity:1"
         offset="1"
         id="stop4688" /></linearGradient><linearGradient
       id="linearGradient5048"><stop
         style="stop-color:#000000;stop-opacity:0"
         offset="0"
         id="stop5050" /><stop
         style="stop-color:#000000;stop-opacity:1"
         offset="0.5"
         id="stop5056" /><stop
         style="stop-color:#000000;stop-opacity:0"
         offset="1"
         id="stop5052" /></linearGradient><linearGradient
       id="linearGradient2937"><stop
         style="stop-color:#333333;stop-opacity:1"
         offset="0"
         id="stop2939" /><stop
         style="stop-color:#474747;stop-opacity:1"
         offset="1"
         id="stop2941" /></linearGradient><linearGradient
       id="linearGradient2929"><stop
         style="stop-color:#737373;stop-opacity:1"
         offset="0"
         id="stop2931" /><stop
         style="stop-color:#73a424;stop-opacity:1"
         offset="1"
         id="stop2933" /></linearGradient><linearGradient
       id="linearGradient5464"><stop
         style="stop-color:#73d216;stop-opacity:1"
         offset="0"
         id="stop5466" /><stop
         style="stop-color:#ffffff;stop-opacity:1"
         offset="1"
         id="stop5468" /></linearGradient><linearGradient
       id="linearGradient4360"><stop
         style="stop-color:#d8d8d8;stop-opacity:0"
         offset="0"
         id="stop4362" /><stop
         style="stop-color:#ffffff;stop-opacity:1"
         offset="1"
         id="stop4364" /></linearGradient><linearGradient
       x1="21.313709"
       y1="10.795495"
       x2="13.984389"
       y2="10.795495"
       id="linearGradient6447"
       xlink:href="#linearGradient5464"
       gradientUnits="userSpaceOnUse"
       gradientTransform="matrix(1,0,0,1.4112692,0,-7.1972126)"
       spreadMethod="reflect" /><linearGradient
       x1="27.16466"
       y1="41.576271"
       x2="37.249554"
       y2="33.886486"
       id="linearGradient3645"
       xlink:href="#linearGradient4360"
       gradientUnits="userSpaceOnUse"
       spreadMethod="reflect" /><linearGradient
       x1="40.751785"
       y1="43.994072"
       x2="7.5954852"
       y2="4.2193146"
       id="linearGradient3326"
       xlink:href="#linearGradient2937"
       gradientUnits="userSpaceOnUse"
       gradientTransform="matrix(0.889237,0,0,0.7822742,0.6229226,7.6471606)" /><linearGradient
       inkscape:collect="always"
       xlink:href="#a"
       id="linearGradient1"
       gradientUnits="userSpaceOnUse"
       gradientTransform="matrix(1.5948908,0,0,1.5948908,84.913089,-2.392341)"
       x1="24.813559"
       y1="46.500004"
       x2="24.813559"
       y2="1.500003" /><linearGradient
       id="linearGradient2795"><stop
         style="stop-color:#b8b8b8;stop-opacity:0.49803922;"
         offset="0"
         id="stop2797" /><stop
         style="stop-color:#7f7f7f;stop-opacity:0;"
         offset="1"
         id="stop2799" /></linearGradient><linearGradient
       id="linearGradient2787"><stop
         style="stop-color:#7f7f7f;stop-opacity:0.5;"
         offset="0"
         id="stop2789" /><stop
         style="stop-color:#7f7f7f;stop-opacity:0;"
         offset="1"
         id="stop2791" /></linearGradient><linearGradient
       id="linearGradient3676"><stop
         style="stop-color:#b2b2b2;stop-opacity:0.5;"
         offset="0"
         id="stop3678" /><stop
         style="stop-color:#b3b3b3;stop-opacity:0;"
         offset="1"
         id="stop3680" /></linearGradient><linearGradient
       id="linearGradient3236"><stop
         style="stop-color:#f4f4f4;stop-opacity:1"
         offset="0"
         id="stop3244" /><stop
         style="stop-color:white;stop-opacity:1"
         offset="1"
         id="stop3240" /></linearGradient><linearGradient
       id="linearGradient4671"><stop
         style="stop-color:#ffd43b;stop-opacity:1;"
         offset="0"
         id="stop4673" /><stop
         style="stop-color:#ffe873;stop-opacity:1"
         offset="1"
         id="stop4675" /></linearGradient><linearGradient
       id="linearGradient4689"><stop
         style="stop-color:#5a9fd4;stop-opacity:1;"
         offset="0"
         id="stop4691" /><stop
         style="stop-color:#306998;stop-opacity:1;"
         offset="1"
         id="stop4693" /></linearGradient><linearGradient
       x1="224.23996"
       y1="144.75717"
       x2="-65.308502"
       y2="144.75717"
       id="linearGradient2987"
       xlink:href="#linearGradient4671"
       gradientUnits="userSpaceOnUse"
       gradientTransform="translate(100.2702,99.61116)" /><linearGradient
       x1="172.94208"
       y1="77.475983"
       x2="26.670298"
       y2="76.313133"
       id="linearGradient2990"
       xlink:href="#linearGradient4689"
       gradientUnits="userSpaceOnUse"
       gradientTransform="translate(100.2702,99.61116)" /><linearGradient
       inkscape:collect="always"
       xlink:href="#linearGradient4671"
       id="linearGradient2255"
       gradientUnits="userSpaceOnUse"
       gradientTransform="matrix(0.562541,0,0,0.567972,-11.5974,-7.60954)"
       x1="224.23996"
       y1="144.75717"
       x2="-65.308502"
       y2="144.75717" /><linearGradient
       inkscape:collect="always"
       xlink:href="#linearGradient4689"
       id="linearGradient2258"
       gradientUnits="userSpaceOnUse"
       gradientTransform="matrix(0.562541,0,0,0.567972,-11.5974,-7.60954)"
       x1="172.94208"
       y1="76.176224"
       x2="26.670298"
       y2="76.313133" /><radialGradient
       inkscape:collect="always"
       xlink:href="#linearGradient2795"
       id="radialGradient2801"
       cx="61.518883"
       cy="132.28575"
       fx="61.518883"
       fy="132.28575"
       r="29.036913"
       gradientTransform="matrix(1,0,0,0.177966,0,108.7434)"
       gradientUnits="userSpaceOnUse" /><linearGradient
       inkscape:collect="always"
       xlink:href="#linearGradient4671"
       id="linearGradient1475"
       gradientUnits="userSpaceOnUse"
       gradientTransform="matrix(0.562541,0,0,0.567972,-9.399749,-5.305317)"
       x1="150.96111"
       y1="192.35176"
       x2="112.03144"
       y2="137.27299" /><linearGradient
       inkscape:collect="always"
       xlink:href="#linearGradient4689"
       id="linearGradient1478"
       gradientUnits="userSpaceOnUse"
       gradientTransform="matrix(0.562541,0,0,0.567972,-9.399749,-5.305317)"
       x1="26.648937"
       y1="20.603781"
       x2="135.66525"
       y2="114.39767" /></defs><sodipodi:namedview
     id="namedview3"
     pagecolor="#ffffff"
     bordercolor="#000000"
     borderopacity="0.25"
     inkscape:showpageshadow="2"
     inkscape:pageopacity="0.0"
     inkscape:pagecheckerboard="0"
     inkscape:deskcolor="#d1d1d1"
     inkscape:zoom="3.0885417"
     inkscape:cx="101.50422"
     inkscape:cy="51.966273"
     inkscape:window-width="1920"
     inkscape:window-height="974"
     inkscape:window-x="-11"
     inkscape:window-y="-11"
     inkscape:window-maximized="1"
     inkscape:current-layer="svg3"
     inkscape:document-units="in" /><linearGradient
     id="a"
     gradientUnits="userSpaceOnUse"
     x1="24.813559"
     x2="24.813559"
     y1="46.500004"
     y2="1.500003"
     gradientTransform="matrix(2.7258001,0,0,2.7258001,-4.0887001,-4.0887082)"><stop
       offset="0"
       stop-color="#e02d2d"
       id="stop1" /><stop
       offset="1"
       stop-color="#f75151"
       id="stop2" /></linearGradient><g
     id="g2"
     transform="matrix(10.416699,0,0,10.416699,2.9289415e-6,-1.1546721e-6)"><rect
       fill="url(#a)"
       height="122.661"
       ry="5.0451231"
       stroke-width="1.09649"
       width="138.84987"
       x="11.595907"
       y="3.1334107"
       id="rect2"
       style="fill:#000080;fill-opacity:1" /><rect
       fill="url(#a)"
       height="71.770088"
       ry="2.9519482"
       stroke-width="0.603008"
       width="71.770088"
       x="87.305428"
       y="1.2261962e-07"
       id="rect1"
       style="fill:url(#linearGradient1)" /><g
       stroke-width="0.340412"
       id="g3"
       transform="matrix(1.5724792,0,0,1.5724792,86.794566,-3.271261)"><path
         d="m 32.632177,7.376005 c -0.545,-0.3135187 -1.237392,-0.4718105 -2.059489,-0.4718105 h -3.428981 c -0.56304,0 -1.097139,0.012251 -1.582909,0.042208 -0.494619,0.029957 -0.974943,0.09906 -1.424958,0.203226 -0.475896,0.1123361 -0.945671,0.3022856 -1.398756,0.5688277 -0.44322,0.2597342 -0.89698,0.6222728 -1.349733,1.0716153 -0.945318,0.8850703 -1.560783,1.8477545 -1.838563,2.8703505 -0.265862,0.97596 -0.401687,2.064937 -0.401687,3.238676 v 1.914817 h -1.716015 c -0.822429,0 -1.518576,0.160336 -2.059832,0.471808 -0.637248,0.365609 -0.960981,1.036559 -0.960981,1.993454 0,1.160123 0.524918,1.702396 0.960981,1.95498 0.541256,0.310798 1.237403,0.470792 2.059832,0.470792 h 1.716015 v 8.945336 c -1.810991,0.905496 -3.06302,2.774691 -3.06302,4.931542 0,3.044297 2.477171,5.513979 5.513304,5.513979 3.040553,0 5.513989,-2.469682 5.513989,-5.513979 0,-2.161954 -1.255099,-4.033535 -3.072554,-4.936655 v -8.940223 h 2.946604 c 0.825831,0 1.522652,-0.159994 2.061865,-0.472835 0.437441,-0.250541 0.958948,-0.792814 0.958948,-1.952937 0,-0.956895 -0.320673,-1.628188 -0.958948,-1.993454 -0.539203,-0.311472 -1.236034,-0.471808 -2.061865,-0.471808 H 24.03882 v -1.914817 c 0,-0.610358 0.05172,-1.152634 0.155565,-1.608786 0.09396,-0.39794 0.29446,-0.733927 0.615123,-1.037233 l 0.0068,-0.0058 0.0088,-0.0058 c 0.227046,-0.228415 0.492907,-0.354027 0.81358,-0.384664 0.42041,-0.04051 0.957579,-0.06162 1.589039,-0.06162 h 3.344546 c 0.822429,0 1.518575,-0.161695 2.059489,-0.473513 0.436063,-0.2485 0.957921,-0.793839 0.957921,-1.9519188 0,-0.9562161 -0.324075,-1.6281883 -0.957921,-1.9937911 z"
         fill="#ffffff"
         fill-opacity="0.847059"
         id="path2" /><path
         d="m 21.595009,33.576122 c -1.107356,0 -2.004678,0.89698 -2.004678,2.005705 0,1.109057 0.897322,2.007063 2.004678,2.007063 1.107698,0 2.010134,-0.898006 2.010134,-2.007063 0,-1.108725 -0.902436,-2.005705 -2.010134,-2.005705 z"
         fill="#4b1100"
         id="path3" /></g><g
       id="g1"
       transform="matrix(0.65921649,0,0,0.65921649,-3.685924,-4.185399)"><path
         style="fill:url(#linearGradient1478);fill-opacity:1"
         d="m 60.510156,6.3979729 c -4.583653,0.021298 -8.960939,0.4122177 -12.8125,1.09375 C 36.35144,9.4962267 34.291407,13.691825 34.291406,21.429223 v 10.21875 h 26.8125 v 3.40625 h -26.8125 -10.0625 c -7.792459,0 -14.6157592,4.683717 -16.7500002,13.59375 -2.46182,10.212966 -2.5710151,16.586023 0,27.25 1.9059283,7.937852 6.4575432,13.593748 14.2500002,13.59375 h 9.21875 v -12.25 c 0,-8.849902 7.657144,-16.656248 16.75,-16.65625 h 26.78125 c 7.454951,0 13.406253,-6.138164 13.40625,-13.625 v -25.53125 c 0,-7.266339 -6.12998,-12.7247775 -13.40625,-13.9375001 -4.605987,-0.7667253 -9.385097,-1.1150483 -13.96875,-1.09375 z m -14.5,8.2187501 c 2.769547,0 5.03125,2.298646 5.03125,5.125 -2e-6,2.816336 -2.261703,5.09375 -5.03125,5.09375 -2.779476,-1e-6 -5.03125,-2.277415 -5.03125,-5.09375 -1e-6,-2.826353 2.251774,-5.125 5.03125,-5.125 z"
         id="path1948" /><path
         style="fill:url(#linearGradient1475);fill-opacity:1"
         d="m 91.228906,35.054223 v 11.90625 c 0,9.230755 -7.825895,16.999999 -16.75,17 h -26.78125 c -7.335833,0 -13.406249,6.278483 -13.40625,13.625 v 25.531247 c 0,7.26634 6.318588,11.54032 13.40625,13.625 8.487331,2.49561 16.626237,2.94663 26.78125,0 6.750155,-1.95439 13.406253,-5.88761 13.40625,-13.625 V 92.897973 h -26.78125 v -3.40625 h 26.78125 13.406254 c 7.79246,0 10.69625,-5.435408 13.40624,-13.59375 2.79933,-8.398886 2.68022,-16.475776 0,-27.25 -1.92578,-7.757441 -5.60387,-13.59375 -13.40624,-13.59375 z m -15.0625,64.65625 c 2.779478,3e-6 5.03125,2.277417 5.03125,5.093747 -2e-6,2.82635 -2.251775,5.125 -5.03125,5.125 -2.76955,0 -5.03125,-2.29865 -5.03125,-5.125 2e-6,-2.81633 2.261697,-5.093747 5.03125,-5.093747 z"
         id="path1950" /></g><path
       d="m 36.164182,92.078856 q 0,-0.38474 0.256497,-0.65956 0.274818,-0.27482 0.659563,-0.27482 0.384745,0 0.659563,0.27482 0.274818,0.27482 0.274818,0.65956 0,0.2565 0.183212,0.43971 0.183212,0.18322 0.439709,0.18322 h 4.561979 q 0.238175,0 0.238175,-0.23818 L 36.58557,83.632788 q -0.421388,-0.586279 -0.421388,-1.282484 v -0.05496 q 0,-0.824454 0.6046,-1.429054 0.622921,-0.604599 1.465696,-0.604599 h 4.561978 q 1.007666,0 1.740514,0.732848 0.75117,0.732848 0.75117,1.740514 0,0.384745 -0.274818,0.659563 -0.274818,0.274818 -0.659564,0.274818 -0.384745,0 -0.659563,-0.274818 -0.256497,-0.274818 -0.256497,-0.659563 0,-0.238176 -0.201533,-0.421388 -0.183212,-0.201533 -0.439709,-0.201533 h -4.561978 q -0.219855,0 -0.219855,0.183212 v 0.05496 0.07328 l 6.815487,8.757542 q 0.45803,0.54963 0.45803,1.28248 -0.03664,0.8611 -0.641242,1.48402 -0.586279,0.6046 -1.447375,0.6046 h -4.561979 q -1.007666,0 -1.740514,-0.73285 -0.732848,-0.73285 -0.732848,-1.74052 z m 13.24622,-1.63058 v -2.19855 q 0,-1.26416 0.952702,-2.08861 0.201533,-0.16489 0.659563,-0.6046 0.476352,-0.45803 0.769491,-0.696208 0.31146,-0.256497 0.842775,-0.476351 0.531315,-0.238176 1.099272,-0.238176 h 3.865773 q 0.384745,0 0.659563,0.274818 0.274818,0.274818 0.274818,0.659567 0,0.38474 -0.274818,0.65956 -0.274818,0.2565 -0.659563,0.2565 h -3.865773 q -0.366424,0 -0.586278,0.21985 l -1.575624,1.35577 q -0.31146,0.20153 -0.31146,0.67788 v 2.19855 q 0,0.42139 0.31146,0.6962 l 1.575624,1.33745 q 0.219854,0.21986 0.586278,0.21986 h 3.865773 q 0.384745,0 0.659563,0.27481 0.274818,0.27482 0.274818,0.64125 0,0.38474 -0.274818,0.65956 -0.274818,0.27482 -0.659563,0.27482 h -3.865773 q -1.044308,0 -1.795478,-0.65957 l -1.575623,-1.35577 q -0.952702,-0.82445 -0.952702,-2.08861 z m 13.246219,3.16957 v -8.53768 q 0,-0.384749 0.256497,-0.659567 0.274818,-0.274818 0.659563,-0.274818 0.384746,0 0.659564,0.274818 0.274818,0.274818 0.274818,0.659567 v 1.08095 l 2.180222,-1.868765 q 0.201534,-0.14657 0.531315,-0.14657 h 1.813799 q 1.117593,0 1.923726,0.824454 0.824454,0.806131 0.824454,1.923731 v 0.51299 q 0,0.38474 -0.274818,0.65956 -0.274818,0.2565 -0.659563,0.2565 -0.384746,0 -0.659564,-0.2565 -0.256496,-0.27482 -0.256496,-0.65956 v -0.51299 q 0,-0.36643 -0.274818,-0.62293 -0.256497,-0.27481 -0.622921,-0.27481 h -1.484017 l -3.041319,2.61993 v 5.00169 q 0,0.38474 -0.274818,0.65956 -0.274818,0.27482 -0.659564,0.27482 -0.384745,0 -0.659563,-0.27482 -0.256497,-0.27482 -0.256497,-0.65956 z m 14.143959,0 q 0,-0.36643 0.274818,-0.64125 0.274818,-0.27481 0.659563,-0.27481 h 1.813799 v -6.70556 h -1.813799 q -0.384745,0 -0.659563,-0.2565 -0.274818,-0.27482 -0.274818,-0.65956 0,-0.384749 0.274818,-0.659567 0.274818,-0.274818 0.659563,-0.274818 h 2.729859 q 0.366424,0 0.641242,0.274818 0.274818,0.274818 0.274818,0.659567 v 7.62162 h 1.795477 q 0.384745,0 0.659563,0.27481 0.274818,0.27482 0.274818,0.64125 0,0.38474 -0.274818,0.65956 -0.274818,0.27482 -0.659563,0.27482 h -5.441396 q -0.384745,0 -0.659563,-0.27482 -0.274818,-0.27482 -0.274818,-0.65956 z m 1.813799,-12.440099 v -0.769491 q 0,-0.384745 0.274818,-0.641242 0.274818,-0.274818 0.659563,-0.274818 h 0.91606 q 0.366424,0 0.641242,0.274818 0.274818,0.256497 0.274818,0.641242 v 0.769491 q 0,0.384745 -0.274818,0.659563 -0.274818,0.274818 -0.641242,0.274818 h -0.91606 q -0.384745,0 -0.659563,-0.274818 -0.274818,-0.274818 -0.274818,-0.659563 z m 10.534682,16.342509 v -12.84316 q 0,-0.366424 0.256497,-0.641242 0.274818,-0.274818 0.659563,-0.274818 0.384745,0 0.659563,0.274818 0.274818,0.274818 0.274818,0.641242 v 0.49467 q 0.03664,-0.0366 0.201533,-0.219852 0.183212,-0.183212 0.238176,-0.219855 0.05496,-0.05496 0.219854,-0.201533 0.164891,-0.164891 0.256497,-0.219854 0.09161,-0.05496 0.256497,-0.164891 0.16489,-0.128248 0.293139,-0.164891 0.146569,-0.05496 0.31146,-0.109927 0.183212,-0.07328 0.366424,-0.09161 0.201533,-0.01832 0.403067,-0.01832 h 0.384745 q 0.531315,0 1.025987,0.219854 0.512994,0.219855 0.751169,0.421388 0.256497,0.183212 0.714527,0.604601 0.03664,0.0366 0.476351,0.42139 0.439709,0.36642 0.549636,0.51299 0.109927,0.12825 0.366424,0.47635 0.274818,0.34811 0.366424,0.69621 0.09161,0.3481 0.09161,0.76949 v 2.94971 q 0,1.24584 -0.971024,2.08862 l -1.575623,1.35577 q -0.751169,0.65956 -1.795477,0.65956 h -0.384745 q -0.567958,0 -1.080951,-0.21985 -0.494673,-0.21986 -0.787812,-0.47635 -0.293139,-0.2565 -0.677884,-0.67789 v 3.95738 q 0,0.38475 -0.274818,0.64124 -0.274818,0.27482 -0.659563,0.27482 -0.384745,0 -0.659563,-0.27482 -0.256497,-0.25649 -0.256497,-0.64124 z m 1.850441,-6.98038 q 0,0.21986 0.09161,0.42139 0.09161,0.18321 0.183212,0.29314 0.09161,0.0916 0.274818,0.2565 0.201533,0.16489 0.256497,0.21985 0.128248,0.12825 0.348102,0.36643 0.219855,0.21985 0.403067,0.40306 0.183212,0.18321 0.348103,0.32978 0.256496,0.2565 0.641242,0.2565 h 0.384745 q 0.366424,0 0.586278,-0.21985 l 1.593945,-1.35577 q 0.31146,-0.23818 0.31146,-0.67789 v -2.94971 q 0,-0.43971 -0.31146,-0.67788 l -1.593945,-1.37409 q -0.219854,-0.21986 -0.586278,-0.21986 h -0.384745 q -0.384746,0 -0.641242,0.2565 l -1.648908,1.66723 q -0.256497,0.20153 -0.256497,0.62292 z m 11.652268,-4.80015 q -0.25649,-0.27482 -0.25649,-0.65956 0,-0.384749 0.25649,-0.659567 0.27482,-0.274818 0.65957,-0.274818 h 0.89774 v -2.180223 q 0,-0.384745 0.25649,-0.659563 0.27482,-0.274818 0.65957,-0.274818 0.38474,0 0.65956,0.274818 0.27482,0.274818 0.27482,0.659563 v 2.180223 h 3.60927 q 0.38475,0 0.64125,0.274818 0.27481,0.274818 0.27481,0.659567 0,0.38474 -0.27481,0.65956 -0.2565,0.2565 -0.64125,0.2565 h -3.60927 v 5.80782 q 0,0.36642 0.25649,0.64124 0.2565,0.2565 0.62292,0.2565 h 1.83212 q 0.36643,0 0.58628,-0.23818 0.23818,-0.2565 0.31146,-0.53132 0.0916,-0.29313 0.31146,-0.53131 0.23818,-0.2565 0.6046,-0.2565 0.38475,0 0.65957,0.27482 0.27481,0.27482 0.27481,0.65956 v 0.14657 q -0.18321,0.95271 -0.97102,1.64891 -0.76949,0.67789 -1.77716,0.67789 h -1.83212 q -1.11759,0 -1.92372,-0.80614 -0.80614,-0.82445 -0.80614,-1.94204 v -5.80782 h -0.89773 q -0.38475,0 -0.65957,-0.2565 z m 12.98973,7.10862 q 0,-0.38474 0.2565,-0.64124 0.25649,-0.27482 0.64124,-0.27482 0.32978,0 0.67788,0.27482 0.34811,0.2565 0.513,0.31146 0.0366,0.0183 0.21985,0.10993 0.18321,0.0733 0.2565,0.0733 h 3.71921 q 0.4397,0 0.67788,-0.29314 0.2565,-0.29314 0.2565,-0.69621 0,-0.62292 -0.53132,-0.8611 l -5.07497,-2.19854 q -0.62293,-0.27482 -1.00767,-0.87942 -0.38475,-0.62292 -0.38475,-1.33744 0,-0.93439 0.67789,-1.593949 0.6962,-0.696206 1.66723,-0.696206 h 3.92074 q 1.37409,0 2.25351,1.154235 0.18321,0.23818 0.18321,0.54964 0,0.38474 -0.27482,0.65956 -0.27482,0.27482 -0.65956,0.27482 -0.32978,0 -0.75117,-0.38475 -0.40307,-0.40306 -0.75117,-0.40306 h -3.92074 q -0.23818,0 -0.38475,0.16489 -0.12825,0.16489 -0.12825,0.36642 0,0.32978 0.29314,0.43971 l 5.0933,2.19854 q 0.69621,0.31146 1.17256,1.02599 0.49467,0.69621 0.49467,1.53898 v 0.0366 q -0.0183,1.15424 -0.84278,1.97869 -0.82445,0.80614 -1.97868,0.80614 h -3.46271 q -1.33745,0 -2.47337,-0.97103 -0.3481,-0.29314 -0.3481,-0.73285 z"
       id="text1"
       style="font-size:18.3212px;font-family:OCRA;-inkscape-font-specification:'OCRA, Normal';fill:#ffffff;stroke-width:1.98813"
       aria-label="Scripts" /><path
       d="m 18.680201,111.43934 v -7.58558 q 0,-0.22344 0.156404,-0.39101 0.167575,-0.16758 0.402181,-0.16758 0.234606,0 0.402181,0.16758 0.167576,0.16757 0.167576,0.39101 v 2.5248 q 0.759675,-0.71499 1.508179,-0.71499 h 0.837877 q 0.145233,0 0.279293,0.0224 0.13406,0.0112 0.268121,0.0782 0.13406,0.0559 0.212262,0.0894 0.0782,0.0223 0.212262,0.13406 0.134061,0.10055 0.167576,0.13406 0.04469,0.0224 0.189919,0.15641 0.156404,0.12288 0.167575,0.13406 0.5921,0.51389 0.5921,1.27357 v 2.30137 q 0,0.17875 -0.02234,0.33515 -0.02234,0.14523 -0.100545,0.29046 -0.0782,0.14524 -0.122889,0.23461 -0.03352,0.0782 -0.178747,0.22343 -0.145232,0.14524 -0.178747,0.17875 -0.02234,0.0335 -0.212262,0.20109 l -0.189919,0.15641 q -0.45804,0.40218 -1.083655,0.40218 h -0.837878 q -0.323979,0 -0.625615,-0.12289 -0.301636,-0.12289 -0.469211,-0.24578 -0.156404,-0.13406 -0.413353,-0.36866 v 0.16757 q 0,0.23461 -0.167576,0.40218 -0.167575,0.16758 -0.402181,0.16758 -0.234606,0 -0.402181,-0.16758 -0.156404,-0.16757 -0.156404,-0.40218 z m 1.128342,-1.9327 q 0,0.25695 0.189919,0.41335 l 0.960766,0.82671 q 0.13406,0.13406 0.357494,0.13406 h 0.837877 q 0.156404,0 0.279293,-0.067 0.122889,-0.067 0.290464,-0.23461 0.167576,-0.16758 0.189919,-0.17875 0.201091,-0.1564 0.201091,-0.41335 v -2.30137 q 0,-0.1564 -0.0782,-0.26812 -0.06703,-0.11172 -0.245778,-0.25695 -0.167575,-0.14523 -0.178747,-0.1564 -0.234606,-0.21227 -0.45804,-0.21227 h -0.837877 q -0.223434,0 -0.357494,0.13406 l -0.960766,0.82671 q -0.189919,0.12289 -0.189919,0.41335 z m 7.105196,4.70328 q -0.156404,-0.1564 -0.156404,-0.39101 0,-0.2346 0.156404,-0.40218 0.167575,-0.16757 0.402181,-0.16757 h 1.150685 l 0.748504,-1.70927 h -0.234606 q -0.379838,0 -0.513898,-0.34633 l -1.664583,-3.7872 q -0.04469,-0.0894 -0.04469,-0.22344 v -0.94959 q 0,-0.23461 0.156404,-0.40218 0.167575,-0.16758 0.402181,-0.16758 0.234606,0 0.402181,0.16758 0.167576,0.16757 0.167576,0.40218 v 0.8267 l 1.463492,3.35151 h 0.357495 l 1.474664,-3.35151 v -0.8267 q 0,-0.23461 0.167576,-0.40218 0.167575,-0.16758 0.402181,-0.16758 0.234605,0 0.402181,0.16758 0.167575,0.16757 0.167575,0.40218 v 0.94959 q 0,0.11172 -0.05586,0.22344 l -2.904642,6.63599 q -0.145232,0.33515 -0.52507,0.33515 H 27.31592 q -0.234606,0 -0.402181,-0.16758 z m 15.997865,-2.77058 v -8.14417 h 3.865408 q 0.692646,0 1.195372,0.50273 0.502727,0.49155 0.502727,1.1842 v 2.0109 q 0,0.69265 -0.502727,1.19538 -0.502726,0.50272 -1.195372,0.50272 h -2.737066 v 2.74824 q 0,0.23461 -0.167576,0.40218 -0.167575,0.16758 -0.402181,0.16758 -0.234605,0 -0.402181,-0.16758 -0.156404,-0.16757 -0.156404,-0.40218 z m 1.128342,-3.87658 h 2.737066 q 0.223434,0 0.39101,-0.16757 0.178747,-0.16758 0.178747,-0.40219 v -2.0109 q 0,-0.22344 -0.178747,-0.39101 -0.167576,-0.16758 -0.39101,-0.16758 h -2.737066 z m 6.948792,2.42426 v -2.30137 q 0,-0.39101 0.178747,-0.72616 0.178747,-0.33515 0.323979,-0.46921 0.145232,-0.13406 0.491555,-0.42453 0.458039,-0.40218 1.083655,-0.40218 h 1.396462 q 0.111717,0 0.212262,0.0112 0.111717,0.0112 0.223434,0.0447 0.111717,0.0335 0.178748,0.0559 0.06703,0.0223 0.178747,0.0894 0.111717,0.067 0.145232,0.0894 0.04469,0.0223 0.156404,0.12288 0.111717,0.0894 0.13406,0.10055 0.02234,0.0112 0.145232,0.12289 l 0.122889,0.11172 q 0.5921,0.51389 0.5921,1.27357 v 1.38529 q 0,0.23461 -0.167576,0.40218 -0.167575,0.16758 -0.402181,0.16758 h -3.865408 v 0.34632 q 0,0.13406 0.06703,0.25695 0.06703,0.12289 0.134061,0.18992 0.0782,0.067 0.212262,0.17874 0.13406,0.10055 0.178747,0.13407 0.167576,0.13406 0.357495,0.13406 h 2.915813 q 0.234606,0 0.402181,0.16757 0.167576,0.16758 0.167576,0.39101 0,0.23461 -0.167576,0.40218 -0.167575,0.16758 -0.402181,0.16758 h -2.915813 q -0.122889,0 -0.234606,-0.0112 -0.100545,-0.0112 -0.212262,-0.0447 -0.100546,-0.0335 -0.178748,-0.0559 -0.0782,-0.0335 -0.178747,-0.0894 -0.08937,-0.0559 -0.145232,-0.0894 -0.05586,-0.0335 -0.156404,-0.11171 -0.08937,-0.0782 -0.122888,-0.10055 -0.03352,-0.0335 -0.145232,-0.12289 -0.100546,-0.10054 -0.122889,-0.12289 -0.580928,-0.48038 -0.580928,-1.27357 z m 1.128341,-1.47466 h 3.306823 v -0.82671 q 0,-0.29046 -0.335151,-0.5921 -0.335151,-0.30164 -0.625615,-0.30164 h -1.396462 q -0.156404,0 -0.279293,0.067 -0.122889,0.067 -0.290464,0.23461 -0.167576,0.16758 -0.189919,0.17875 -0.189919,0.1564 -0.189919,0.41335 z m 7.105195,-1.87685 q -0.156403,-0.16758 -0.156403,-0.40218 0,-0.23461 0.156403,-0.40218 0.167576,-0.16758 0.402182,-0.16758 h 0.547413 v -1.32943 q 0,-0.23461 0.156404,-0.40218 0.167575,-0.16758 0.402181,-0.16758 0.234606,0 0.402181,0.16758 0.167576,0.16757 0.167576,0.40218 v 1.32943 h 2.200824 q 0.234606,0 0.39101,0.16758 0.167575,0.16757 0.167575,0.40218 0,0.2346 -0.167575,0.40218 -0.156404,0.1564 -0.39101,0.1564 h -2.200824 v 3.54143 q 0,0.22344 0.156403,0.39101 0.156404,0.15641 0.379838,0.15641 h 1.11717 q 0.223434,0 0.357495,-0.14524 0.145232,-0.1564 0.189918,-0.32398 0.05586,-0.17874 0.189919,-0.32397 0.145232,-0.15641 0.368666,-0.15641 0.234606,0 0.402182,0.16758 0.167575,0.16757 0.167575,0.40218 v 0.0894 q -0.111717,0.58093 -0.5921,1.00545 -0.469211,0.41336 -1.083655,0.41336 h -1.11717 q -0.681474,0 -1.173028,-0.49156 -0.491555,-0.50272 -0.491555,-1.1842 v -3.54143 h -0.547413 q -0.234606,0 -0.402182,-0.1564 z m 7.920734,3.35151 v -2.30137 q 0,-0.39101 0.178747,-0.72616 0.178747,-0.33515 0.323979,-0.46921 0.145232,-0.13406 0.491555,-0.42453 0.45804,-0.40218 1.083655,-0.40218 h 1.396462 q 0.111717,0 0.212263,0.0112 0.111717,0.0112 0.223434,0.0447 0.111717,0.0335 0.178747,0.0559 0.06703,0.0223 0.178747,0.0894 0.111717,0.067 0.145232,0.0894 0.04469,0.0223 0.156404,0.12288 0.111717,0.0894 0.13406,0.10055 0.02234,0.0112 0.145232,0.12289 l 0.122889,0.11172 q 0.5921,0.51389 0.5921,1.27357 v 1.38529 q 0,0.23461 -0.167575,0.40218 -0.167576,0.16758 -0.402182,0.16758 h -3.865408 v 0.34632 q 0,0.13406 0.06703,0.25695 0.06703,0.12289 0.13406,0.18992 0.0782,0.067 0.212262,0.17874 0.134061,0.10055 0.178747,0.13407 0.167576,0.13406 0.357495,0.13406 h 2.915813 q 0.234606,0 0.402182,0.16757 0.167575,0.16758 0.167575,0.39101 0,0.23461 -0.167575,0.40218 -0.167576,0.16758 -0.402182,0.16758 h -2.915813 q -0.122889,0 -0.234606,-0.0112 -0.100545,-0.0112 -0.212262,-0.0447 -0.100545,-0.0335 -0.178747,-0.0559 -0.0782,-0.0335 -0.178748,-0.0894 -0.08937,-0.0559 -0.145232,-0.0894 -0.05586,-0.0335 -0.156403,-0.11171 -0.08937,-0.0782 -0.122889,-0.10055 -0.03351,-0.0335 -0.145232,-0.12289 -0.100546,-0.10054 -0.122889,-0.12289 -0.580928,-0.48038 -0.580927,-1.27357 z m 1.128341,-1.47466 h 3.306823 v -0.82671 q 0,-0.29046 -0.335151,-0.5921 -0.335151,-0.30164 -0.625615,-0.30164 h -1.396462 q -0.156404,0 -0.279293,0.067 -0.122888,0.067 -0.290464,0.23461 -0.167575,0.16758 -0.189919,0.17875 -0.189919,0.1564 -0.189919,0.41335 z m 6.948792,2.92698 v -5.20601 q 0,-0.23461 0.156404,-0.40218 0.167575,-0.16758 0.402181,-0.16758 0.234606,0 0.402181,0.16758 0.167576,0.16757 0.167576,0.40218 v 0.65913 l 1.329432,-1.13951 q 0.122888,-0.0894 0.323979,-0.0894 h 1.105998 q 0.681474,0 1.173029,0.50273 0.502726,0.49155 0.502726,1.17303 v 0.3128 q 0,0.23461 -0.167575,0.40219 -0.167576,0.1564 -0.402181,0.1564 -0.234606,0 -0.402182,-0.1564 -0.156403,-0.16758 -0.156403,-0.40219 v -0.3128 q 0,-0.22344 -0.167576,-0.37984 -0.156404,-0.16758 -0.379838,-0.16758 h -0.904907 l -1.854502,1.59756 v 3.04987 q 0,0.23461 -0.167576,0.40218 -0.167575,0.16758 -0.402181,0.16758 -0.234606,0 -0.402181,-0.16758 -0.156404,-0.16757 -0.156404,-0.40218 z m 16.154266,-5.56351 v -2.02207 q 0,-0.22344 0.156404,-0.39101 0.167576,-0.16758 0.402181,-0.16758 0.234606,0 0.402181,0.16758 0.167576,0.16757 0.167576,0.39101 v 1.79864 l 1.653411,4.2229 1.653412,-4.2229 v -1.79864 q 0,-0.22344 0.156404,-0.39101 0.167575,-0.16758 0.402181,-0.16758 0.234606,0 0.402181,0.16758 0.167576,0.16757 0.167576,0.39101 v 2.0109 l -2.256684,5.78694 q -0.145232,0.3575 -0.52507,0.3575 -0.391009,0 -0.536241,-0.3575 z m 8.077133,4.45751 v -0.62561 q 0,-0.69265 0.491555,-1.1842 0.491555,-0.49156 1.173025,-0.49156 h 2.15614 q 0.26812,0 0.49156,0.0782 0,-0.0782 -0.0112,-0.25694 0,-0.18992 -0.0112,-0.26813 0,-0.0894 -0.0223,-0.24577 -0.0112,-0.15641 -0.0447,-0.22344 -0.0335,-0.0782 -0.10055,-0.16757 -0.0559,-0.0894 -0.1564,-0.12289 -0.0894,-0.0335 -0.22344,-0.0335 h -2.07793 q -0.23461,0 -0.40218,-0.1564 -0.15641,-0.16758 -0.15641,-0.40218 0,-0.23461 0.15641,-0.40218 0.16757,-0.16758 0.40218,-0.16758 h 2.07793 q 0.68148,0 1.16186,0.48039 0.49155,0.46921 0.5139,1.13951 l 0.14523,4.16704 q 0,0.23461 -0.17875,0.40218 -0.16757,0.15641 -0.40218,0.15641 -0.22343,0 -0.39101,-0.16758 -0.1564,-0.16757 -0.1564,-0.39101 l -0.82671,0.48039 q -0.11171,0.0782 -0.27929,0.0782 h -1.66458 q -0.68148,0 -1.173032,-0.49156 -0.491555,-0.49155 -0.491555,-1.1842 z m 1.12834,0 q 0,0.22344 0.15641,0.39101 0.1564,0.15641 0.37983,0.15641 h 1.50818 l 1.19538,-0.70382 v -0.49156 q 0,-0.20109 -0.17875,-0.35749 -0.16758,-0.16758 -0.36867,-0.16758 h -2.15614 q -0.21226,0 -0.37983,0.16758 -0.15641,0.1564 -0.15641,0.37984 z m 6.94879,1.106 v -5.20601 q 0,-0.23461 0.15641,-0.40218 0.16757,-0.16758 0.40218,-0.16758 0.2346,0 0.40218,0.16758 0.16758,0.16757 0.16758,0.40218 v 0.37984 l 1.07248,-0.68148 q 0.42452,-0.26812 0.90491,-0.26812 h 0.63678 q 0.68148,0 1.16186,0.48039 0.49155,0.46921 0.5139,1.13951 l 0.13406,4.15587 q 0,0.23461 -0.16758,0.40218 -0.1564,0.16758 -0.39101,0.16758 -0.22343,0 -0.39101,-0.15641 -0.16757,-0.16757 -0.16757,-0.39101 l -0.14523,-4.1447 q -0.0223,-0.21226 -0.17875,-0.36866 -0.14523,-0.15641 -0.36867,-0.15641 H 110.478 l -1.82098,1.17303 v 3.4744 q 0,0.23461 -0.16758,0.40218 -0.16758,0.16758 -0.40218,0.16758 -0.23461,0 -0.40218,-0.16758 -0.15641,-0.16757 -0.15641,-0.40218 z m 16.15428,0.56976 v -8.71393 h 4.99375 q 0.23461,0 0.40218,0.16758 0.16758,0.16757 0.16758,0.39101 0,0.2346 -0.16758,0.40218 -0.16757,0.16757 -0.40218,0.16757 h -3.86541 v 2.65887 h 1.65341 q 0.22344,0 0.39101,0.16757 0.16758,0.16758 0.16758,0.40218 0,0.23461 -0.16758,0.40219 -0.16757,0.1564 -0.39101,0.1564 h -1.65341 v 2.67004 h 3.86541 q 0.23461,0 0.40218,0.16757 0.16758,0.16758 0.16758,0.39101 0,0.23461 -0.16758,0.40218 -0.16757,0.16758 -0.40218,0.16758 z m 8.07713,1.80981 v -7.83136 q 0,-0.22343 0.15641,-0.39101 0.16757,-0.16757 0.40218,-0.16757 0.23461,0 0.40218,0.16757 0.16758,0.16758 0.16758,0.39101 v 0.30164 q 0.0223,-0.0224 0.12289,-0.13406 0.11171,-0.11172 0.14523,-0.13406 0.0335,-0.0335 0.13406,-0.12289 0.10054,-0.10055 0.1564,-0.13406 0.0559,-0.0335 0.15641,-0.10055 0.10054,-0.0782 0.17874,-0.10054 0.0894,-0.0335 0.18992,-0.067 0.11172,-0.0447 0.22344,-0.0559 0.12288,-0.0112 0.24577,-0.0112 h 0.23461 q 0.32398,0 0.62561,0.13406 0.31281,0.13406 0.45804,0.25695 0.15641,0.11171 0.4357,0.36866 0.0223,0.0223 0.29046,0.25695 0.26812,0.22344 0.33515,0.31281 0.067,0.0782 0.22344,0.29046 0.16757,0.21227 0.22343,0.42453 0.0559,0.21226 0.0559,0.46921 v 1.79864 q 0,0.75968 -0.5921,1.27358 l -0.96077,0.8267 q -0.45803,0.40218 -1.09482,0.40218 h -0.23461 q -0.34632,0 -0.65913,-0.13406 -0.30163,-0.13406 -0.48038,-0.29046 -0.17875,-0.15641 -0.41335,-0.41335 v 2.41308 q 0,0.23461 -0.16758,0.39101 -0.16757,0.16758 -0.40218,0.16758 -0.23461,0 -0.40218,-0.16758 -0.15641,-0.1564 -0.15641,-0.39101 z m 1.12835,-4.25641 q 0,0.13406 0.0558,0.25694 0.0559,0.11172 0.11172,0.17875 0.0559,0.0559 0.16758,0.15641 0.12289,0.10054 0.1564,0.13406 0.0782,0.0782 0.21226,0.22343 0.13406,0.13406 0.24578,0.24578 0.11172,0.11171 0.21226,0.20109 0.15641,0.1564 0.39101,0.1564 h 0.23461 q 0.22343,0 0.35749,-0.13406 l 0.97194,-0.8267 q 0.18992,-0.14524 0.18992,-0.41336 v -1.79864 q 0,-0.26812 -0.18992,-0.41335 l -0.97194,-0.83788 q -0.13406,-0.13406 -0.35749,-0.13406 h -0.23461 q -0.2346,0 -0.39101,0.1564 l -1.00545,1.01663 q -0.1564,0.12289 -0.1564,0.37983 z m 6.94879,4.25641 v -7.83136 q 0,-0.22343 0.1564,-0.39101 0.16758,-0.16757 0.40218,-0.16757 0.23461,0 0.40218,0.16757 0.16758,0.16758 0.16758,0.39101 v 0.30164 q 0.0223,-0.0224 0.12289,-0.13406 0.11172,-0.11172 0.14523,-0.13406 0.0335,-0.0335 0.13406,-0.12289 0.10055,-0.10055 0.1564,-0.13406 0.0559,-0.0335 0.15641,-0.10055 0.10054,-0.0782 0.17875,-0.10054 0.0894,-0.0335 0.18991,-0.067 0.11172,-0.0447 0.22344,-0.0559 0.12289,-0.0112 0.24578,-0.0112 h 0.2346 q 0.32398,0 0.62562,0.13406 0.3128,0.13406 0.45804,0.25695 0.1564,0.11171 0.43569,0.36866 0.0224,0.0223 0.29047,0.25695 0.26812,0.22344 0.33515,0.31281 0.067,0.0782 0.22343,0.29046 0.16758,0.21227 0.22344,0.42453 0.0558,0.21226 0.0558,0.46921 v 1.79864 q 0,0.75968 -0.5921,1.27358 l -0.96076,0.8267 q -0.45804,0.40218 -1.09483,0.40218 h -0.2346 q -0.34633,0 -0.65913,-0.13406 -0.30164,-0.13406 -0.48039,-0.29046 -0.17874,-0.15641 -0.41335,-0.41335 v 2.41308 q 0,0.23461 -0.16758,0.39101 -0.16757,0.16758 -0.40218,0.16758 -0.2346,0 -0.40218,-0.16758 -0.1564,-0.1564 -0.1564,-0.39101 z m 1.12834,-4.25641 q 0,0.13406 0.0559,0.25694 0.0559,0.11172 0.11172,0.17875 0.0558,0.0559 0.16757,0.15641 0.12289,0.10054 0.1564,0.13406 0.0782,0.0782 0.21227,0.22343 0.13406,0.13406 0.24577,0.24578 0.11172,0.11171 0.21227,0.20109 0.1564,0.1564 0.39101,0.1564 h 0.2346 q 0.22344,0 0.3575,-0.13406 l 0.97193,-0.8267 q 0.18992,-0.14524 0.18992,-0.41336 v -1.79864 q 0,-0.26812 -0.18992,-0.41335 l -0.97193,-0.83788 q -0.13406,-0.13406 -0.3575,-0.13406 h -0.2346 q -0.23461,0 -0.39101,0.1564 l -1.00546,1.01663 q -0.1564,0.12289 -0.1564,0.37983 z"
       id="text2"
       style="font-size:11.1717px;font-family:OCRA;-inkscape-font-specification:'OCRA, Normal';fill:#ffffff;stroke-width:1.2123"
       aria-label="by Peter Van Epp" /></g></svg>
